<?xml version="1.0" encoding="utf-8"?>
<!-- Generator: Adobe Illustrator 26.4.1, SVG Export Plug-In . SVG Version: 6.00 Build 0)  -->
<svg version="1.1" id="Calque_1" xmlns="http://www.w3.org/2000/svg" xmlns:xlink="http://www.w3.org/1999/xlink" x="0px" y="0px"
	 viewBox="0 0 1239.6 1239.6" style="enable-background:new 0 0 1239.6 1239.6;" xml:space="preserve">
<path d="M322.9,844.7c50.3,0,91.1-40.8,91.1-91.1s-40.8-91.1-91.1-91.1s-91.1,40.8-91.1,91.1S272.6,844.7,322.9,844.7z"/>
<path d="M1021.5,526.1c40.7-109.7-180.7-230.9-484.6-247.4c-59.9-3.2-120.1,3.6-177.4,21.4c-26.8,8.3-52.8,16.8-74.7,28.5
	c-93.1,50.1-102.1,162.2-23.8,221c8.2,6.2,17.4,12.2,27.5,17.9c299.6,129.1,388.6,172.8,186.6,313.9c-30.9,21.6-18.5,70.2,19,74
	c123.2,12.5,356.8-38.2,444.5-143.7c21-25.2,16.5-63.1-10-82.3c-30.9-22.3-73.6-36.9-96.2-45.3c-151.5-56.2-516.1-135.6-502.1-247.7
	c1.7-13.3,10.5-24.8,22.7-30.4c29.2-13.4,72.8-7.1,122.5,6.7c56.8,15.7,109.5,43.4,155.6,80.2C824.8,647.7,991.1,608,1021.5,526.1z"
	/>
</svg>
